<svg width="30" height="18" viewBox="0 0 30 18" fill="none" xmlns="http://www.w3.org/2000/svg">
<g id="Ic">
<g id="Vector">
<path d="M15.8407 0.459355C15.2334 -0.153121 14.2212 -0.153121 13.6139 0.459355L0.455529 13.6616C-0.151781 14.3422 -0.151781 15.3629 0.455528 15.9754L2.00754 17.5406C2.61485 18.1531 3.62704 18.1531 4.30183 17.5406L14.6936 7.06049L25.1528 17.5406C25.8276 18.1531 26.8398 18.1531 27.4471 17.5406L28.9991 15.9754C29.6064 15.3629 29.6064 14.3422 28.9991 13.6616L15.8407 0.459355Z" fill="white"/>
<path d="M15.8407 0.459355C15.2334 -0.153121 14.2212 -0.153121 13.6139 0.459355L0.455529 13.6616C-0.151781 14.3422 -0.151781 15.3629 0.455528 15.9754L2.00754 17.5406C2.61485 18.1531 3.62704 18.1531 4.30183 17.5406L14.6936 7.06049L25.1528 17.5406C25.8276 18.1531 26.8398 18.1531 27.4471 17.5406L28.9991 15.9754C29.6064 15.3629 29.6064 14.3422 28.9991 13.6616L15.8407 0.459355Z" fill="white"/>
</g>
</g>
</svg>
